<?xml version="1.0" encoding="UTF-8"?>
<svg width="24px" height="24px" viewBox="0 0 24 24" version="1.1" xmlns="http://www.w3.org/2000/svg" xmlns:xlink="http://www.w3.org/1999/xlink">
    <!-- Generator: sketchtool 46.2 (44496) - http://www.bohemiancoding.com/sketch -->
    <title>72388DD5-7B05-40E9-BE49-699468648ED5</title>
    <desc>Created with sketchtool.</desc>
    <defs></defs>
    <g id="Page-1" stroke="none" stroke-width="1" fill="none" fill-rule="evenodd">
        <g id="NoteApp1" transform="translate(-850.000000, -84.000000)" stroke="#6C757C">
            <g id="Tool-bar" transform="translate(0.000000, 64.000000)">
                <g id="Can" transform="translate(850.000000, 20.000000)">
                    <g>
                        <path d="M3.39834666,0.5 C3.29468409,0.5 3.19112189,0.50644755 3.08825982,0.519305308 C1.71820997,0.690561539 0.746395733,1.94003699 0.917651964,3.31008684 L3.16765196,21.3100868 C3.32403597,22.5611589 4.38753848,23.5 5.64834666,23.5 L18.3516533,23.5 C19.6124615,23.5 20.675964,22.5611589 20.832348,21.3100868 L23.082348,3.31008684 C23.0952058,3.20722477 23.1016533,3.10366256 23.1016533,3 C23.1016533,1.61928813 21.9823652,0.5 20.6016533,0.5 L3.39834666,0.5 Z" id="Rectangle-11"></path>
                        <path d="M6.38130006,5.27244535 L7.5532186,19.9579956" id="Path-2"></path>
                        <path d="M16.3813001,5.27244535 L17.5532186,19.9579956" id="Path-2" transform="translate(16.967259, 12.615220) scale(-1, 1) translate(-16.967259, -12.615220) "></path>
                        <path d="M12.1558385,5.30244721 L12.1558385,19.7855955" id="Path-3"></path>
                    </g>
                </g>
            </g>
        </g>
    </g>
</svg>