<?xml version="1.0" encoding="UTF-8"?>
<svg width="24px" height="24px" viewBox="0 0 24 24" version="1.1" xmlns="http://www.w3.org/2000/svg" xmlns:xlink="http://www.w3.org/1999/xlink">
    <!-- Generator: sketchtool 46.2 (44496) - http://www.bohemiancoding.com/sketch -->
    <title>BAC4D95A-DBB2-43C7-87A6-F9ECACF01713</title>
    <desc>Created with sketchtool.</desc>
    <defs></defs>
    <g id="Page-1" stroke="none" stroke-width="1" fill="none" fill-rule="evenodd">
        <g id="NoteApp1" transform="translate(-666.000000, -85.000000)" fill-rule="nonzero" fill="#6C757C">
            <g id="Tool-bar" transform="translate(0.000000, 64.000000)">
                <g id="I" transform="translate(666.000000, 21.000000)">
                    <path d="M12,1 C5.92486775,1 1,5.92486775 1,12 C1,18.0751322 5.92486775,23 12,23 C18.0751322,23 23,18.0751322 23,12 C23,5.92486775 18.0751322,1 12,1 Z M12,12 L11.9797226,12.0202774 L18.9797226,19.0202774 L19.8083633,18.1916367 L13.0908203,11.4740936 L13.0908203,2 L11.9189453,2 L11.9189453,12 L12,12 Z M12,1.42108547e-14 C18.627417,1.42108547e-14 24,5.372583 24,12 C24,18.627417 18.627417,24 12,24 C5.372583,24 0,18.627417 0,12 C0,5.372583 5.372583,1.42108547e-14 12,1.42108547e-14 Z"></path>
                </g>
            </g>
        </g>
    </g>
</svg>